<svg id="Layer_1" data-name="Layer 1" xmlns="http://www.w3.org/2000/svg" viewBox="0 0 136 33"><defs><style>.cls-1{fill:#fff;}</style></defs><path class="cls-1" d="M22.75.21H9.4A9.31,9.31,0,0,0,.12,9.49V23.71A9.31,9.31,0,0,0,9.4,33H22.75A9.32,9.32,0,0,0,32,23.71V9.49A9.31,9.31,0,0,0,22.75.21Zm6.83,23.5a6.86,6.86,0,0,1-6.83,6.84H9.4a6.86,6.86,0,0,1-6.83-6.84V9.49A6.86,6.86,0,0,1,9.4,2.66H22.75a6.86,6.86,0,0,1,6.83,6.83Z"/><path class="cls-1" d="M16.13,7.69a8.79,8.79,0,1,0,8.79,8.79A8.78,8.78,0,0,0,16.13,7.69Zm-.05,14.55a5.76,5.76,0,1,1,5.76-5.76A5.75,5.75,0,0,1,16.08,22.24Z"/><circle class="cls-1" cx="25.06" cy="7.55" r="2.08"/><path class="cls-1" d="M53.84,8c-.12-.39-1.28-.71-1.63-.71C49.9,7.27,47,11.1,47,14.13a3.58,3.58,0,0,0,2.06,3c.42.18.71.18.82,0s.05-.41-.2-.78a5.57,5.57,0,0,1-.62-2.58,7.7,7.7,0,0,1,2.13-5c.1-.08.29-.21.29,0V22.12a16.27,16.27,0,0,1-.31,2.49c0,.25-.56,1.54-.15,1.54a3.12,3.12,0,0,0,1.47-.85,5.24,5.24,0,0,0,1.17-2.18,11.55,11.55,0,0,0,.19-2.1V8h0Z"/><path class="cls-1" d="M134.66,20a.35.35,0,0,0-.26-.11.34.34,0,0,0-.35.27c-.08.31-.19.82-.3,1.17-.19.61-.47,1.2-.95,1.2-.89,0-1.09-1.7-1.13-2.25s0-1.46-.07-2.05V16.11l.08-1.12a2.1,2.1,0,0,0,0-.75,1,1,0,0,0-.38-.56,4.47,4.47,0,0,0-1.8-.65.81.81,0,0,0-.56.23,2.16,2.16,0,0,0-.35.63c-.2.49-.38.92-.53,1.34s-.43,1.32-.63,2.11a15.18,15.18,0,0,0-.31,1.58,1.13,1.13,0,0,0,0,.18.56.56,0,0,0,0,.07,0,0,0,0,1-.09,0,1.23,1.23,0,0,1,0-.19,34.83,34.83,0,0,1-.19-3.83,3.59,3.59,0,0,0,0-1,1.2,1.2,0,0,0-.29-.53,2.25,2.25,0,0,0-1.34-.59,1.08,1.08,0,0,0-.69,0,1.48,1.48,0,0,0-.43.59,30.47,30.47,0,0,0-1.46,4l0-3.69a1.62,1.62,0,0,0,0-.31.48.48,0,0,0-.17-.26l-.23-.1a10.62,10.62,0,0,0-1.12-.24l-.3,0a.36.36,0,0,0-.32.2c-.12.23-.11,4.39-.1,6.11A9.52,9.52,0,0,1,120,21c-.15.49-.64,1.48-1.23,1.6s-1-.52-1.11-1.51a50.59,50.59,0,0,1,0-6.4c0-.84.21-1.15-.67-1.38a3.19,3.19,0,0,0-1.21-.14c-.26,0-.38.35-.33.89a2.68,2.68,0,0,0-2.63-1.25c-1.8.2-3.08,2.83-3.3,4.83a11.71,11.71,0,0,0,.13,3.25c0,.61-.14,1.73-1.25,1.67-.92-.05-1.44-1.55-1.28-3.57a31,31,0,0,1,.65-3.68c.27-1.31-.5-1.56-1.58-1.42-.57.08-1.35.24-2.21.38.18-.66.11-1.37-.4-1.61a1.59,1.59,0,0,0-1.74.33,1.72,1.72,0,0,0,.17,2.63,15.85,15.85,0,0,1-2.68,5.58c0-1.08.13-6,.08-7.27,0-.47-.44-.65-.82-.73-.06,0-.55-.06-.55-.07a1,1,0,0,0-.68.16c-.22.18-.21.38-.19.78a2.54,2.54,0,0,0-2.77-1.19c-1.71.35-2.92,2.79-3.13,4.76a12.56,12.56,0,0,0,0,2.28c0,.28,0,.54.08.8-.27,1-.73,1.75-1.31,1.88s-1-.52-1.12-1.51a48.81,48.81,0,0,1,0-6.4c.05-.84.2-1.15-.68-1.38a3.19,3.19,0,0,0-1.21-.14c-.25,0-.37.35-.33.89A2.67,2.67,0,0,0,84,12.8c-1.8.2-3.08,2.83-3.3,4.83a10.23,10.23,0,0,0,0,2,9.69,9.69,0,0,1-.53,1.28c-1.09,2.05-2.3,1.8-2.49-.69-.06-.77-.08-1.58-.08-2.35.07-1.77.13-3.55.19-5.33,1,0,2,0,3,0,.41,0,.68-1.38.29-1.41l-3.23-.2.09-2.85V8a.52.52,0,0,0-.4-.34l-.9-.27c-.49-.12-1.14-.28-1.19.45,0,.55-.08,1.66-.12,2.92L73,10.67c-.44,0-1,1.75-.25,1.76l2.48.06c0,1.18-.12,3.74-.12,5.94a6.54,6.54,0,0,1-1.74,2.74,3.19,3.19,0,0,0-1.45-3.34l-2.18-1.66A4.89,4.89,0,0,0,71,13.64c0-.48-.36-.94-1.2-.94a2.65,2.65,0,0,0-2.51,2.57A2.5,2.5,0,0,0,68,16.78c-2.43,4.55-3,5.11-3.43,5.11-.3,0-.44-.66-.42-2.69,0-1.82.15-3.05.15-4.52a1.36,1.36,0,0,0-.78-1.2A6.35,6.35,0,0,0,62,13a2.42,2.42,0,0,0-1.51.93,14.13,14.13,0,0,0-2.37,4.94l0-4.89a1.62,1.62,0,0,0,0-.31.5.5,0,0,0-.4-.36A7,7,0,0,0,56.3,13a.32.32,0,0,0-.29.22c0,.1,0,2.41,0,4.83,0,1.6,0,3.13,0,4.13s0,1.74,1.41,1.74c.64,0,.78,0,.87-.51.3-1.81,1.3-6.21,3.49-8.55A.12.12,0,0,1,62,15a39,39,0,0,0,0,7.41c.09.65.47,1.63,1.26,1.63,1.06,0,1.83-.24,3.85-3.49.5-.79,1.06-1.75,1.74-2.93l1.24,1.13a3.2,3.2,0,0,1,1.18,2.12c0,.83-.41,1.54-1.09,1.54-1,0-1.43-.93-2-.93S67.05,22.55,67.05,23s1.37,1.12,3.13,1.12a4.8,4.8,0,0,0,3.28-1.32,8.51,8.51,0,0,0,1.83-2.88c.07,1.75,1,4,2.67,4a2.87,2.87,0,0,0,2.11-1.26,5.36,5.36,0,0,0,.85-1.46,5.74,5.74,0,0,0,.53,1.28A2.82,2.82,0,0,0,83.56,24,3,3,0,0,0,86,23.11a5.21,5.21,0,0,0,1-1.34A2.54,2.54,0,0,0,89.46,24c1.2,0,1.79-.95,2.12-2a4.13,4.13,0,0,0,.45.79c1.42,1.92,3.72,1.55,5.18-.38,0,.45,0,.88,0,1a39.62,39.62,0,0,0-3.82,3.72,3.9,3.9,0,0,0-.92,2.5,2.86,2.86,0,0,0,2.94,2.35c2.65,0,3.49-2,3.88-4.76a33.65,33.65,0,0,0,.08-4.35,20.32,20.32,0,0,0,4.14-7.21l1.57,0a.32.32,0,0,1,.23.07s0,.17,0,.33c-.41,2.09-1,4.52.07,6.43A2.72,2.72,0,0,0,107.74,24a3,3,0,0,0,2.38-1.66A3,3,0,0,0,112.35,24a3,3,0,0,0,2.41-.88,5.24,5.24,0,0,0,1-1.34,3.83,3.83,0,0,0,.23.75A2.59,2.59,0,0,0,118,24c1.55.06,1.93-1,2.3-1.73a10.2,10.2,0,0,0,.1,1.19.38.38,0,0,0,.22.26A3.09,3.09,0,0,0,122,24c.3,0,.7,0,.89-.23A1.7,1.7,0,0,0,123,23c0-.74.07-2,.11-2.47a10.19,10.19,0,0,1,.69-2.92,11.5,11.5,0,0,1,.84-1.83.11.11,0,0,1,.1-.06.12.12,0,0,1,.12.13c0,.6,0,1.15,0,1.67a29.55,29.55,0,0,0,.41,3.84,4.65,4.65,0,0,0,.16.72,1.52,1.52,0,0,0,1.44,1,1.58,1.58,0,0,0,.58-.11l.15-.08a.32.32,0,0,0,.16-.23.82.82,0,0,0,0-.22,1.15,1.15,0,0,1,0-.19,15.36,15.36,0,0,1,.35-2.91,15.89,15.89,0,0,1,1.27-3.73s0-.08.07-.08.05,0,.06.06v.1a11,11,0,0,0-.07,1.41c0,.72,0,1.44,0,2.16a11.34,11.34,0,0,0,.31,2.31,4,4,0,0,0,.32.83A2.46,2.46,0,0,0,132.33,24a2.35,2.35,0,0,0,2.19-1.9c.07-.24.13-.48.18-.73S134.87,20.2,134.66,20Zm-48.15-1.2c-.08,2.75-1.3,3.87-2.22,3.7-1.1-.2-1.46-1.67-1.28-4.3.16-2.38,1-3.67,2-3.68C86.47,14.54,86.66,17.18,86.51,18.82Zm10.54,0c-.08,2.75-1.3,3.87-2.21,3.7-1.11-.2-1.46-1.67-1.29-4.3.23-3.43,2.28-4.6,3.21-3C97.15,15.92,97.1,17.11,97.05,18.82ZM96,30.74c-1,.55-2.18-.31-1.78-1.68s2.15-3.11,3.08-4.17C97.36,26.3,97.47,30,96,30.74ZM115.3,18.82c-.08,2.75-1.3,3.87-2.21,3.7-1.11-.2-1.46-1.67-1.29-4.3.16-2.38,1-3.67,2-3.68C115.27,14.54,115.46,17.18,115.3,18.82Z"/></svg>