<?xml version="1.0" encoding="UTF-8"?><svg id="Layer_1" data-name="Layer 1" xmlns="http://www.w3.org/2000/svg" viewBox="0 0 844.58 279.33"><defs><style>.cls-1{fill:#6d6e71;}.cls-2{fill:#0db14b;}.cls-3{fill:#f58220;}.cls-4{fill:#231f20;}</style></defs><rect class="cls-1" x="376.94" y="235.68" width="145.76" height="4.84"/><rect class="cls-1" x="474.3" y="260.13" width="77.58" height="4.84"/><rect class="cls-1" x="410.97" y="59.71" width="145.76" height="4.84"/><rect class="cls-1" x="316.85" y="88.65" width="145.76" height="4.84"/><path class="cls-2" d="M137,185c4.19,0,112.77.67,112.77.67s1.31-5.07-3.12-5.18-11.92-.25-15.13-1.17-8.54-4.7-10.19-5.62-10.6-3.82-16.11-3.91a26.47,26.47,0,0,0-9,1.26c-2.88.7-5.18,1.42-5.18,1.42s2.06-20.23,2.22-23.24.82-19.3.82-19.3,9.7,6.77,10.44,7.35,6,4.68,6,4.68,1-.24,1.23-.87a32.76,32.76,0,0,0,.74-6.32c-.08-1.25-13.48-12.2-13.48-12.2l21.54,7.52,1-.25S220.42,125,220,124a24.45,24.45,0,0,0-2-3.17s-9.45-3.68-9.86-3.68-7.4-1.17-8.71-.75,20.55-9.7,20.55-9.7-3.95-3.34-7.15-4.18l-6.17-1.58-15.21,13L183,104.92s-8.06,2-9.46,2-6.16,4-6.16,4l21.29,6.19s-13,2.09-13.23,2.17-8.06,4.43-8.06,4.43l-1.73,8.36.5,1.92L177,127.82l10.11-4.35L183.92,132l-.49,2.25,1.15.25,3-2.84-2.79,23.9s-1.65,13.88-2.39,15.8-5.67,3.76-5.67,3.76l-7.32-21.23s-6.33-13.79-6.41-14-3.12-5.35-3.12-5.35l3-11.78,2.3-10.53s.66-2.68.33-3.18-7.81.34-9,.59-3.2.67-3.2,1.75-1.48,20.4-1.48,20.4-7.57-1.26-9-1.43-4.43-.33-4.43-.33-3.79,4.09-4.53,5.27-5.34,8.85-5.34,8.85,0,1.51,2,.67,11.43-5,11.43-5l7.56-1.84-8.05,6.94a34.7,34.7,0,0,0-3.13,5.35,52.48,52.48,0,0,1-2.46,4.68,12.94,12.94,0,0,0,1.56,4.42c1.23,2,2.63,4.85,3.37,4.85s2.55-2.76,2.79-3.59,7.4-15.46,7.4-15.46l-3.29,14.12a9.55,9.55,0,0,0-.08,1.67c.08.34,5.67,6.61,6,6.86s1.89,1.67,2.14.08,2.46-24.5,2.46-24.5l4.44,10s4,11.2,5.26,16.05a44.6,44.6,0,0,1,1.4,7.69,10.19,10.19,0,0,0-3.29.66c-1.15.59-3.28,2-5.67,2s-19.07.25-23.18.42-4.43,4.72-.24,4.76"/><path class="cls-3" d="M251.75,160c-3.09,8.67-6.2,5.49-6.37,2.48-.74-13.59,6.45-18.53,6.45-18.53,1.74,6.21-.08,16.05-.08,16.05m6.5,5.52s3.82-13.33-3.47-25.33c0,0,4.17-3.86,6.36-1.36.76.87,9.74,39.84,9.74,39.84h8L292.3,138h4.77v-4l-14.24,0v4h3.95l-9.06,26.48L272.12,138h4.2v-4H256.83c-1,0-18.34,6.33-16.94,28,.44,6.86,6.63,16.09,15.37,2.48Z"/><path class="cls-3" d="M301.16,149.09,305.08,162h-8.42ZM283.52,171v4h13.91v-4.08H293.7l1-2.48h11.95l1.1,2.55H304.4v4h16.92v-4H318l-12.7-38.7H301L287.69,171Z"/><path class="cls-3" d="M475.69,163.65l3.16-12.93,3.48,12.93ZM497,183.41,483.8,131.68H469.92v4.8h6.79l-11.35,47h-4.15v4h14.34v-4.09h-3.73l2.34-11.92h9.73l2,12h-3.34v4h17.8v-4Z"/><path class="cls-3" d="M397.38,162.28h-7.65l3.73-10.9ZM379,178.46h5.87l3.29-9.5h9.94l3,9.71h10L397.76,136.8H377.35v3.93H392Z"/><path class="cls-3" d="M323.79,177.17H347s2.36-2.77,3.79-9c0,0,2.66-11.22-5.3-14.14-2.33-.85-7.88-1.75-9.49,4.88,0,0-.86,5.54,4.59,6,0,0,4.64.19,4.35-4.57,0,0-.27-2.67-2.61-2.54-.21,0-.5-.07-.3-.47s.91-.31,1.49-.11a3.31,3.31,0,0,1,2.28,3.32s.67,6.9-4.87,10.64h-7L334,138h4.23V134H311.32V138h12.47Z"/><path class="cls-3" d="M352.82,178.64H376s2.37-2.77,3.81-9c0,0,2.65-11.22-5.31-14.14-2.32-.85-7.88-1.75-9.48,4.88,0,0-.87,5.55,4.58,6,0,0,4.64.19,4.35-4.57,0,0-.26-2.67-2.6-2.53-.21,0-.51-.08-.3-.48s.91-.32,1.48-.11a3.31,3.31,0,0,1,2.28,3.32s.22,6.9-5.31,10.64H363V140.73h4.27V136.8h-27v3.93h12.48Z"/><path class="cls-3" d="M424.9,147.49a2.58,2.58,0,0,1-3.2,2.72V135.64c2.3-.2,3.12.59,3.2,2.62a65.07,65.07,0,0,1,0,9.23m15.74,28.81c-4,1.84-3.44,8,.45,8.74,2.66.49,3.42-1,3.87-.58s-1.89,2.07-4.62,1.82c-4.72-.43-4-4.52-4-4.52V161.29c0-6.27-1-6.42-1-6.42-.86-1.31-4.16-1.89-4.16-1.89,6.46-.59,5.24-8.75,5.24-8.75V133.45c-1.08-5.55-8.53-5-8.53-5H397.33v4h14.92v48.73H253.4v4.66H425.15v-4.66h-2.87v-25s3.25-.58,4.11,2.24v22.25s-1.1,8.5,7.21,11.71c0,0,7.71,2.4,12.73-2.7,3.67-3.74,3.76-8.82,2.22-11.29a6.11,6.11,0,0,0-7.91-2.19"/><polygon class="cls-3" points="446.77 123.66 446.77 167.75 440.58 167.75 440.58 173.72 465.8 173.72 465.8 167.75 459.39 167.75 459.39 123.66 462.7 144.36 467.8 143.68 462.48 117.59 443.01 117.59 438.59 144.13 443.68 144.58 446.77 123.66"/><path class="cls-4" d="M505.72,179.74h.6c.68,0,1.26-.25,1.26-.9,0-.46-.32-.93-1.26-.93a4.09,4.09,0,0,0-.6.05Zm0,2.93h-.82v-5.28a9.56,9.56,0,0,1,1.47-.12,2.74,2.74,0,0,1,1.61.39,1.29,1.29,0,0,1,.47,1.1,1.31,1.31,0,0,1-1,1.28v0c.46.09.76.51.86,1.28a4.67,4.67,0,0,0,.34,1.31h-.87a4.23,4.23,0,0,1-.35-1.35,1,1,0,0,0-1.12-.92h-.58Zm.87-6.75a4,4,0,1,0,3.74,4,3.87,3.87,0,0,0-3.74-4Zm0-.74a4.74,4.74,0,1,1-4.63,4.73,4.64,4.64,0,0,1,4.63-4.73Z"/><path class="cls-1" d="M136.3,210.35c2.45-.11,5.31-.79,5.31-1.88,0-.6-.53-.91-2.5-1.73s-3.54-1.63-3.54-3.12c0-2,3.76-4.13,9-4.62l.61,2.44c-2.5.08-4.95.67-4.95,1.76,0,.63,1.19,1.06,2.6,1.61s3.49,1.35,3.49,3c0,1.95-2.78,4.32-9.29,5.05Z"/><path class="cls-1" d="M180.26,203.23c0,3.58-.28,5.82-2.2,7.51a9.43,9.43,0,0,1-6.49,2c-1.76,0-4.72-.23-6.59-2.3-1.21-1.36-1.63-2.77-1.63-7.29v-1c0-.86,0-2.33,0-2.76h4.5a18,18,0,0,0-.16,3.17v1.27c0,2.83.2,4.18,1.16,5.19A4.56,4.56,0,0,0,175,209c.91-1,.94-2.42.94-5.94v-.69c0-1.29-.1-2.5-.13-3.19h4.45c0,.41,0,1.75,0,3.22Z"/><path class="cls-1" d="M203.39,212.49c-.06-.39-.06-2.43-.06-2.8V209c5.56-.73,8.66-3.13,8.66-5.61,0-2.05-2.17-3.18-5-3.63a55.31,55.31,0,0,0-7.85-.37c0,.28.07,4.06.07,4.49v2c0,1.32,0,5.81-.07,6.61Zm-.06-11.05c3.69.11,4.29,1.47,4.29,2.33,0,1.75-2.11,2.8-4.29,3.09Z"/><path class="cls-1" d="M239.89,212.67c-.69,0-9.19-.18-10.18-.18.08-1,.08-5,.08-5.4v-2.5c0-.3,0-4.79-.08-5.25,1.09,0,8.82-.28,9.68-.34l.1,2.4c-.86,0-5,.1-5.46.1v3.39c.49,0,3.46-.09,4.63-.17l.07,2.35c-.61,0-4.17-.08-4.7-.08v3.19c.64,0,4.22,0,5.76-.05Z"/><path class="cls-1" d="M258.6,212.49c.1-.45,0-6.36,0-6.74v-1.53c0-.56,0-4.53-.13-4.88,2.55,0,5.5,0,7.62.24,3.64.33,5.61,1.38,5.61,3.06s-1.36,2.73-3.36,3.74c.71.63,4.85,4,5.51,4.58l-3.56,2c-.46-.52-5.66-5.86-6.39-6.66,1.18-.49,3.28-1.57,3.28-3,0-.87-.83-1.87-4.39-1.89v5.41c0,.71.07,5.42.12,5.7Z"/><path class="cls-1" d="M288.41,212c.45-.76,5.68-11.43,6.59-13h.18c1.21,1.57,5.37,7.06,6.13,8,1-1.08,5.2-6.42,6.19-7.6h.18c1.39,2.26,6.23,11,7.09,12.37L310.86,213c-.79-1.45-3.76-7.45-4.06-7.94-.56.6-4.3,5.1-5.84,6.75h-.15c-1.77-2.11-4.59-5.87-5.1-6.63h0c-.41.87-3.06,7-3.46,7.82Z"/><path class="cls-1" d="M332.82,213c.56-.78,1.89-3,2.12-3.39l8.08-.28c.28.28,2.12,2.82,2.76,3.65l3.83-1.71c-1.31-1.44-7.78-9.52-10.48-12.59H339c-1.7,2-8.82,11.46-9.82,12.76Zm3.44-5.55c.47-.72,2.19-3.35,2.7-4.08.38.58,2.22,3.11,2.75,3.9Z"/><path class="cls-1" d="M366.58,212.49c.1-.45.05-6.36.05-6.74v-1.53c0-.56-.05-4.53-.13-4.88,2.55,0,5.5,0,7.63.24,3.63.33,5.6,1.38,5.6,3.06s-1.36,2.73-3.36,3.74c.71.63,4.85,4,5.51,4.58l-3.57,2c-.45-.52-5.65-5.86-6.38-6.66,1.18-.49,3.28-1.57,3.28-3,0-.87-.83-1.87-4.39-1.89v5.41c0,.71.07,5.42.12,5.7Z"/><path class="cls-1" d="M398.87,212.67c0-.53.1-3.68.1-5.81v-2c0-1.62-.1-5.31-.1-5.74h4.46c0,.3-.12,3.93-.12,5.55v.64h.12c1.42-1.23,6.8-5.63,7.38-6.13l3,2.08c-1,.75-4.69,3.32-6,4.34.87.73,5.54,4.18,6.55,5l-3.26,2.2c-.35-.34-6-5.13-7.63-6.69h-.12v.62c0,1.42.08,5.6.12,5.95Z"/><path class="cls-1" d="M441.89,212.67c-.69,0-9.19-.18-10.18-.18.08-1,.08-5,.08-5.4v-2.5c0-.3-.05-4.79-.08-5.25,1.08,0,8.81-.28,9.67-.34l.1,2.4c-.86,0-5,.1-5.45.1v3.39c.48,0,3.46-.09,4.62-.17l.07,2.35c-.6,0-4.16-.08-4.69-.08v3.19c.63,0,4.21,0,5.75-.05Z"/><path class="cls-1" d="M463.5,212.49c.07-.49.1-4.28.1-6.68v-4c-1.9,0-5.48.09-6.26.15v-2.59c1.13.11,7.12.19,7.39.19h2.2c.48,0,6-.08,7.22-.19v2.59c-.48-.06-5.15-.15-6.26-.15v4.32c0,2.68.12,6,.18,6.39Z"/><path class="cls-1" d="M490.08,210.35c2.45-.11,5.3-.79,5.3-1.88,0-.6-.52-.91-2.5-1.73-1.82-.77-3.53-1.63-3.53-3.12,0-2,3.76-4.13,9-4.62l.59,2.44c-2.49.08-4.94.67-4.94,1.76,0,.63,1.18,1.06,2.6,1.61s3.48,1.35,3.48,3c0,1.95-2.77,4.32-9.29,5.05Z"/><path class="cls-2" d="M655.44,133.73H653.9c-8.2,0-12.33,5.26-13.8,13.59L635.58,173c-2,11.28,3.61,13.72,9,13.72h1.54c8.2,0,12.38-5.52,13.95-13.72l4.52-25.63C666.57,136,661,133.73,655.44,133.73Z"/><path class="cls-2" d="M618,62.13a97.68,97.68,0,0,0-71.1,30.59h25.58v9.61H538.92a97.51,97.51,0,0,0-18.65,52.08h19.67v18.87H521a97.63,97.63,0,0,0,22.56,50.36h73.85v9.61H552.93A97.95,97.95,0,1,0,618,62.13Zm-1.79,81-.47,2.69a1.45,1.45,0,0,1-1.36,1.16H599.67a.94.94,0,0,1-.95-1.16l.29-1.67c1.38-7.81-3.17-10.38-9.7-10.38h-1.54c-4.23,0-7.25,1.16-9.63,3.72-2.22,2.44-3.43,5.64-4.17,9.87l-4.48,25.38c-2,11.15,3.63,13.58,9,13.58H580c7.82,0,12.49-5.38,13.93-13.58l.21-1.16H580.72a.93.93,0,0,1-1-1.15l2.42-13.71a1.42,1.42,0,0,1,1.35-1.16h29.35a.93.93,0,0,1,1,1.16L610.3,176.8c-3.33,18.84-14.85,26.78-33.95,26.78-17.82,0-28.24-7.05-24.76-26.78l5.95-33.71c3.27-18.58,15.06-26.53,34.15-26.53C609.64,116.56,619.7,123.48,616.24,143.09Zm66.13,0-5.94,33.71c-1.56,8.84-4.44,15-9,19.09-5.9,5.13-13.91,7.69-24.94,7.69-11.4,0-18.39-2.56-22.35-7.69-3-4.1-4-10.25-2.4-19.09l5.94-33.71c1.51-8.59,4.52-14.74,9.11-19,5.8-5.25,13.9-7.56,25.05-7.56s18.28,2.43,22.23,7.69C683.16,128.48,683.89,134.5,682.37,143.09Z"/><path class="cls-4" d="M689.68,252.8h-2.84v-1.35h7.23v1.35H691.2v7.33h-1.52Z"/><path class="cls-4" d="M695.18,251.45h1.47l2.83,4,2.83-4h1.46v8.68h-1.53v-4.29c0-.66,0-1.29,0-1.88l0,0c-.36.56-.74,1.09-1.15,1.68L699.45,258l-1.63-2.33c-.41-.59-.79-1.12-1.15-1.68l0,0c0,.59,0,1.22,0,1.88v4.29h-1.47Z"/><path class="cls-2" d="M233.12,165.55c1,4.17.82,8.55-1.28,11.92,0,0-8.38-5.67-9.24-6.11a37.64,37.64,0,0,0-10.26-3.85c-5.38-1.48-13.45.09-13.45.09s0-.1,0-.52A17.49,17.49,0,0,1,212,152.8C225.43,149.46,230.91,156.59,233.12,165.55Z"/></svg>